<svg xmlns="http://www.w3.org/2000/svg" xmlns:xlink="http://www.w3.org/1999/xlink" width="500"
   zoomAndPan="magnify" viewBox="0 0 375 374.999991" height="500"
   preserveAspectRatio="xMidYMid meet" version="1.0">
   <defs>
      <g />
   </defs>
   <g fill="#004aad" fill-opacity="1">
      <g transform="translate(116.87645, 306.211255)">
         <g>
            <path
               d="M 70.332031 -191.265625 C 124.222656 -191.265625 141.394531 -200.949219 141.394531 -230.90625 C 141.394531 -261.050781 124.222656 -270.730469 70.695312 -270.730469 C 17.355469 -270.730469 0.183594 -261.050781 0.183594 -230.90625 C 0.183594 -200.949219 17.171875 -191.265625 70.332031 -191.265625 Z M 4.75 0 L 136.460938 0 L 136.460938 -190.535156 C 136.460938 -190.535156 79.832031 -179.390625 4.75 -190.535156 Z M 4.75 0 " />
         </g>
      </g>
   </g>
   <g fill="#004aad" fill-opacity="1">
      <g transform="translate(138.525746, 331.309256)">
         <g>
            <path
               d="M 0.894531 0 L 6.589844 0 L 6.589844 -12.890625 L 0.894531 -12.890625 Z M 0.894531 0 " />
         </g>
      </g>
   </g>
   <g fill="#004aad" fill-opacity="1">
      <g transform="translate(146.005336, 331.309256)">
         <g>
            <path
               d="M 8.558594 0.359375 C 13.679688 0.359375 16.921875 -1.539062 16.902344 -4.296875 C 16.902344 -6.75 14.933594 -7.96875 10.347656 -8.378906 L 8.234375 -8.558594 C 6.714844 -8.683594 6.050781 -8.878906 6.070312 -9.183594 C 6.085938 -9.667969 7.304688 -9.917969 9.007812 -9.9375 C 10.851562 -9.953125 13.015625 -9.523438 14.628906 -8.753906 L 15.953125 -12.03125 C 14.144531 -12.820312 11.566406 -13.265625 8.953125 -13.265625 C 3.902344 -13.265625 0.539062 -11.675781 0.519531 -8.773438 C 0.519531 -6.375 2.417969 -5.175781 6.839844 -4.761719 L 8.898438 -4.566406 C 10.617188 -4.421875 11.351562 -4.191406 11.351562 -3.8125 C 11.351562 -3.347656 10.402344 -3.132812 8.863281 -3.132812 C 6.589844 -3.132812 3.8125 -3.796875 2.023438 -4.707031 L 0.359375 -1.289062 C 2.308594 -0.304688 5.695312 0.359375 8.558594 0.359375 Z M 8.558594 0.359375 " />
         </g>
      </g>
   </g>
   <g fill="#004aad" fill-opacity="1">
      <g transform="translate(163.254914, 331.309256)">
         <g>
            <path
               d="M 4.835938 0 L 10.5625 0 L 10.5625 -8.953125 L 15.21875 -8.953125 L 15.21875 -12.890625 L 0.179688 -12.890625 L 0.179688 -8.953125 L 4.835938 -8.953125 Z M 4.835938 0 " />
         </g>
      </g>
   </g>
   <g fill="#004aad" fill-opacity="1">
      <g transform="translate(178.643525, 331.309256)">
         <g>
            <path
               d="M 6.230469 0 L 12.675781 0 L 18.925781 -12.890625 L 13.035156 -12.890625 L 9.472656 -4.671875 L 9.4375 -4.671875 L 5.871094 -12.890625 L 0 -12.890625 Z M 6.230469 0 " />
         </g>
      </g>
   </g>
   <g fill="#004aad" fill-opacity="1">
      <g transform="translate(197.557215, 331.309256)">
         <g>
            <path
               d="M -0.0195312 0 L 5.890625 0 L 6.660156 -1.96875 L 12.320312 -1.96875 L 13.089844 0 L 19.015625 0 L 12.910156 -12.890625 L 6.285156 -12.890625 Z M 7.628906 -5.011719 L 9.488281 -9.507812 L 9.523438 -9.507812 L 11.351562 -5.011719 Z M 7.628906 -5.011719 " />
         </g>
      </g>
   </g>
   <g fill="#004aad" fill-opacity="1">
      <g transform="translate(216.560362, 331.309256)">
         <g>
            <path
               d="M 0.894531 0 L 6.265625 0 L 6.265625 -7.609375 L 6.285156 -7.609375 L 12.175781 0 L 18.980469 0 L 18.980469 -12.890625 L 13.609375 -12.890625 L 13.609375 -5.425781 L 13.589844 -5.425781 L 7.699219 -12.890625 L 0.894531 -12.890625 Z M 0.894531 0 " />
         </g>
      </g>
   </g>
</svg>